Coordinates
version=1
nRows=32
nColumns=12
inDegrees=yes

Units are S.I. units (second, meters, Newtons, ...)
Angles are in degrees

endheader
time	SC_y	SC_z	SC_x	AC_y	AC_z	AC_x	GH_y	GH_z	GH_yy	EL_x	PS_y
       0.0              -50.04          12.64          24.56           49.1         -8.307          16.11          23.13          40.82         -170.6          67.35          20.68
  0.005145              -50.03          12.64          24.56           49.1         -8.306          16.11          23.12          40.82         -170.5          67.35          20.68
   0.01029              -50.03          12.64          24.57           49.1         -8.305          16.11           23.1          40.81         -170.5          67.35          20.68
   0.01543              -50.03          12.63          24.58           49.1         -8.304          16.11          23.09           40.8         -170.4          67.35          20.68
   0.02058              -50.02          12.63          24.59          49.11         -8.303          16.11          23.07           40.8         -170.4          67.35          20.68
   0.02572              -50.02          12.63           24.6          49.11         -8.302          16.11          23.06          40.79         -170.3          67.36          20.68
   0.03087              -50.02          12.62          24.61          49.11           -8.3          16.11          23.04          40.78         -170.2          67.36          20.68
   0.03601              -50.01          12.62          24.62          49.11         -8.299          16.11          23.03          40.77         -170.2          67.36          20.68
   0.04116              -50.01          12.62          24.64          49.11         -8.297          16.11          23.01          40.76         -170.1          67.36          20.68
    0.0463               -50.0          12.61          24.65          49.11         -8.296          16.11          22.99          40.75         -170.0          67.36          20.68
   0.05145               -50.0          12.61          24.66          49.12         -8.294          16.11          22.96          40.74         -169.9          67.36          20.68
   0.05659              -49.99           12.6          24.68          49.12         -8.292          16.11          22.94          40.73         -169.9          67.36          20.68
   0.06174              -49.98           12.6           24.7          49.12          -8.29          16.11          22.92          40.72         -169.8          67.36          20.68
   0.06688              -49.98          12.59          24.71          49.12         -8.288          16.11          22.89           40.7         -169.7          67.37          20.68
   0.07202              -49.97          12.59          24.73          49.13         -8.285          16.11          22.86          40.69         -169.5          67.37          20.68
   0.07717              -49.96          12.58          24.75          49.13         -8.283          16.11          22.83          40.67         -169.4          67.37          20.68
   0.08231              -49.95          12.58          24.78          49.13          -8.28          16.11          22.79          40.66         -169.3          67.37          20.68
   0.08746              -49.94          12.57           24.8          49.14         -8.277          16.11          22.76          40.64         -169.2          67.37          20.68
    0.0926              -49.93          12.56          24.83          49.14         -8.274          16.12          22.71          40.62         -169.0          67.38          20.68
   0.09775              -49.92          12.55          24.86          49.15          -8.27          16.12          22.67           40.6         -168.8          67.38          20.69
    0.1029              -49.91          12.54          24.89          49.15         -8.266          16.12          22.62          40.57         -168.6          67.38          20.69
     0.108               -49.9          12.53          24.93          49.16         -8.261          16.12          22.56          40.54         -168.4          67.38          20.69
    0.1132              -49.88          12.52          24.97          49.16         -8.256          16.12           22.5          40.51         -168.2          67.39          20.69
    0.1183              -49.86          12.51          25.01          49.17         -8.251          16.12          22.44          40.48         -168.0          67.39          20.69
    0.1235              -49.85           12.5          25.06          49.18         -8.245          16.12          22.36          40.44         -167.7           67.4          20.69
    0.1286              -49.82          12.48          25.12          49.19         -8.238          16.12          22.28           40.4         -167.4           67.4          20.69
    0.1338               -49.8          12.46          25.18           49.2         -8.231          16.13          22.19          40.36         -167.0          67.41          20.69
    0.1389              -49.77          12.44          25.25          49.21         -8.222          16.13          22.08           40.3         -166.6          67.41          20.69
     0.144              -49.75          12.42          25.33          49.22         -8.213          16.13          21.97          40.24         -166.2          67.42           20.7
    0.1492              -49.71          12.39          25.42          49.23         -8.202          16.13          21.83          40.18         -165.7          67.43           20.7
    0.1543              -49.67          12.37          25.52          49.25         -8.189          16.14          21.68           40.1         -165.1          67.44           20.7
    0.1595              -49.63          12.33          25.64          49.26         -8.175          16.14           21.5          40.01         -164.4          67.45           20.7
